<mxfile modified="2021-04-12T17:32:40.117Z" host="app.diagrams.net" agent="5.0 (Windows NT 10.0; WOW64) AppleWebKit/537.36 (KHTML, like Gecko) Chrome/88.0.4324.150 Safari/537.36" etag="kXfxt6hvzbPFFRhTA8e_" version="14.5.10" type="github">
  <diagram id="joxKfAUvZ1GzhVLKwL1J" name="Network Design">
    <mxGraphModel dx="759" dy="499" grid="1" gridSize="10" guides="1" tooltips="1" connect="1" arrows="1" fold="1" page="1" pageScale="1" pageWidth="1700" pageHeight="1100" math="0" shadow="0">
      <root>
        <mxCell id="0" />
        <mxCell id="1" parent="0" />
        <mxCell id="wMVF6Ftdtufdl3YfwQ66-36" value="AWS GovCloud" style="points=[[0,0],[0.25,0],[0.5,0],[0.75,0],[1,0],[1,0.25],[1,0.5],[1,0.75],[1,1],[0.75,1],[0.5,1],[0.25,1],[0,1],[0,0.75],[0,0.5],[0,0.25]];outlineConnect=0;gradientColor=none;html=1;whiteSpace=wrap;fontSize=12;fontStyle=0;shape=mxgraph.aws4.group;grIcon=mxgraph.aws4.group_aws_cloud_alt;strokeColor=#232F3E;fillColor=none;verticalAlign=top;align=right;spacingLeft=30;fontColor=#232F3E;dashed=0;" parent="1" vertex="1">
          <mxGeometry x="240" y="380" width="540" height="780" as="geometry" />
        </mxCell>
        <mxCell id="rVX_8A2fTbSxbzOPcYSw-15" value="OFA cloud.gov Organization" style="points=[[0,0],[0.25,0],[0.5,0],[0.75,0],[1,0],[1,0.25],[1,0.5],[1,0.75],[1,1],[0.75,1],[0.5,1],[0.25,1],[0,1],[0,0.75],[0,0.5],[0,0.25]];outlineConnect=0;gradientColor=none;html=1;whiteSpace=wrap;fontSize=12;fontStyle=0;shape=mxgraph.aws4.group;grIcon=mxgraph.aws4.group_region;strokeColor=#147EBA;fillColor=none;verticalAlign=top;align=right;spacingLeft=30;fontColor=#147EBA;dashed=0;" parent="1" vertex="1">
          <mxGeometry x="270" y="430" width="470" height="690" as="geometry" />
        </mxCell>
        <mxCell id="QzKXCY8GYKlgsEN4Nh85-55" value="" style="rounded=1;arcSize=18;dashed=1;strokeColor=#ff0000;fillColor=none;gradientColor=none;dashPattern=8 4;strokeWidth=4;fontColor=#000000;movable=1;resizable=1;rotatable=1;deletable=1;editable=1;connectable=1;" parent="1" vertex="1">
          <mxGeometry x="350" y="640" width="340" height="450" as="geometry" />
        </mxCell>
        <mxCell id="iA-LfhA7wfivf__Mqdaw-14" value="&lt;font color=&quot;#ff0000&quot;&gt;Isolated Production cloud.gov Space&lt;br&gt;&lt;/font&gt;" style="points=[[0,0],[0.25,0],[0.5,0],[0.75,0],[1,0],[1,0.25],[1,0.5],[1,0.75],[1,1],[0.75,1],[0.5,1],[0.25,1],[0,1],[0,0.75],[0,0.5],[0,0.25]];outlineConnect=0;gradientColor=none;html=1;whiteSpace=wrap;fontSize=12;fontStyle=0;shape=mxgraph.aws4.group;grIcon=mxgraph.aws4.group_vpc;strokeColor=#248814;fillColor=none;verticalAlign=top;align=left;spacingLeft=30;fontColor=#AAB7B8;dashed=0;movable=1;resizable=1;rotatable=1;deletable=1;editable=1;connectable=1;strokeWidth=5;" parent="1" vertex="1">
          <mxGeometry x="377.75" y="670" width="272.25" height="230" as="geometry" />
        </mxCell>
        <mxCell id="iA-LfhA7wfivf__Mqdaw-48" value="Commit Code" style="edgeStyle=orthogonalEdgeStyle;rounded=1;orthogonalLoop=1;jettySize=auto;html=1;strokeColor=#6C8EBF;" parent="1" source="QzKXCY8GYKlgsEN4Nh85-24" target="iA-LfhA7wfivf__Mqdaw-43" edge="1">
          <mxGeometry x="0.7757" relative="1" as="geometry">
            <mxPoint as="offset" />
            <mxPoint x="-392.14750076663586" y="143" as="sourcePoint" />
          </mxGeometry>
        </mxCell>
        <mxCell id="QzKXCY8GYKlgsEN4Nh85-24" value="Developers" style="outlineConnect=0;fontColor=#232F3E;gradientColor=none;fillColor=#232F3E;strokeColor=none;dashed=0;verticalLabelPosition=bottom;verticalAlign=top;align=center;html=1;fontSize=12;fontStyle=0;aspect=fixed;pointerEvents=1;shape=mxgraph.aws4.users;" parent="1" vertex="1">
          <mxGeometry x="60" y="104" width="78" height="78" as="geometry" />
        </mxCell>
        <mxCell id="QzKXCY8GYKlgsEN4Nh85-25" value="" style="endArrow=classic;html=1;strokeColor=#00CC00;entryX=0;entryY=0.5;entryDx=0;entryDy=0;entryPerimeter=0;" parent="1" source="QzKXCY8GYKlgsEN4Nh85-24" target="iA-LfhA7wfivf__Mqdaw-49" edge="1" treatAsSingle="0">
          <mxGeometry width="50" height="50" relative="1" as="geometry">
            <mxPoint x="150" y="370" as="sourcePoint" />
            <mxPoint x="130" y="530" as="targetPoint" />
            <Array as="points">
              <mxPoint x="20" y="143" />
              <mxPoint x="20" y="535" />
            </Array>
          </mxGeometry>
        </mxCell>
        <mxCell id="QzKXCY8GYKlgsEN4Nh85-50" value="&lt;font color=&quot;#00cc00&quot; style=&quot;font-size: 11px&quot;&gt;&lt;span&gt;PORT 443&lt;/span&gt; HTTPS&lt;/font&gt;" style="text;html=1;resizable=0;points=[];align=center;verticalAlign=middle;labelBackgroundColor=#ffffff;fontColor=#000000;fontStyle=0" parent="QzKXCY8GYKlgsEN4Nh85-25" vertex="1" connectable="0">
          <mxGeometry x="-0.0457" y="31" relative="1" as="geometry">
            <mxPoint x="19" y="11.850000000000023" as="offset" />
          </mxGeometry>
        </mxCell>
        <mxCell id="QzKXCY8GYKlgsEN4Nh85-56" value="&lt;font color=&quot;#ff0000&quot;&gt;&lt;b style=&quot;font-size: 17px&quot;&gt;&amp;nbsp;&lt;/b&gt;&lt;span style=&quot;font-size: 17px&quot;&gt;&lt;b&gt;Accreditation&lt;/b&gt;&lt;/span&gt;&lt;b style=&quot;font-size: 17px&quot;&gt;&amp;nbsp;Boundary&lt;/b&gt;&lt;/font&gt;" style="text;html=1;strokeColor=none;fillColor=none;align=center;verticalAlign=middle;whiteSpace=wrap;rounded=0;fontColor=#000000;" parent="1" vertex="1">
          <mxGeometry x="360" y="610" width="190" height="20" as="geometry" />
        </mxCell>
        <mxCell id="eJWyd6xHbrgMZhB6U5gL-1" value="OFA Admins&lt;br&gt;Data Preppers" style="outlineConnect=0;fontColor=#232F3E;gradientColor=none;fillColor=#232F3E;strokeColor=none;dashed=0;verticalLabelPosition=bottom;verticalAlign=top;align=center;html=1;fontSize=12;fontStyle=0;aspect=fixed;pointerEvents=1;shape=mxgraph.aws4.users;" parent="1" vertex="1">
          <mxGeometry x="60" y="713" width="78" height="78" as="geometry" />
        </mxCell>
        <mxCell id="eJWyd6xHbrgMZhB6U5gL-2" value="&lt;span&gt;PORT 443&lt;/span&gt; HTTPS" style="endArrow=classic;html=1;strokeColor=#00CC00;entryX=0;entryY=0.5;entryDx=0;entryDy=0;entryPerimeter=0;fontColor=#00CC00;fontStyle=0" parent="1" edge="1">
          <mxGeometry x="-0.0405" y="-50" width="50" height="50" relative="1" as="geometry">
            <mxPoint x="60.147500766636085" y="752" as="sourcePoint" />
            <mxPoint x="80" y="535" as="targetPoint" />
            <Array as="points">
              <mxPoint x="20" y="752" />
              <mxPoint x="20" y="535" />
            </Array>
            <mxPoint as="offset" />
          </mxGeometry>
        </mxCell>
        <mxCell id="eJWyd6xHbrgMZhB6U5gL-6" value="MFA via Google Authenticator, PIV/CAC, or SMS" style="text;html=1;strokeColor=none;fillColor=none;align=center;verticalAlign=middle;whiteSpace=wrap;rounded=0;" parent="1" vertex="1">
          <mxGeometry x="90" y="430" width="90" height="78" as="geometry" />
        </mxCell>
        <mxCell id="iA-LfhA7wfivf__Mqdaw-51" style="edgeStyle=orthogonalEdgeStyle;rounded=1;orthogonalLoop=1;jettySize=auto;html=1;entryX=0;entryY=0.5;entryDx=0;entryDy=0;entryPerimeter=0;strokeColor=#6C8EBF;fontColor=#00CC00;" parent="1" source="iA-LfhA7wfivf__Mqdaw-11" target="iA-LfhA7wfivf__Mqdaw-50" edge="1">
          <mxGeometry relative="1" as="geometry" />
        </mxCell>
        <mxCell id="iA-LfhA7wfivf__Mqdaw-11" value="cloud.gov load balancer" style="verticalLabelPosition=bottom;html=1;verticalAlign=top;align=center;strokeColor=none;fillColor=#00BEF2;shape=mxgraph.azure.load_balancer_generic;pointerEvents=1;" parent="1" vertex="1">
          <mxGeometry x="342.5" y="510" width="37.5" height="50" as="geometry" />
        </mxCell>
        <mxCell id="iA-LfhA7wfivf__Mqdaw-46" value="Commit Hook&lt;br&gt;PORT 443 HTTPS" style="edgeStyle=orthogonalEdgeStyle;rounded=1;orthogonalLoop=1;jettySize=auto;html=1;strokeColor=#6C8EBF;entryX=0;entryY=0.5;entryDx=0;entryDy=0;" parent="1" source="iA-LfhA7wfivf__Mqdaw-43" target="fAXEoHdD-FQfSCv90Svo-37" edge="1">
          <mxGeometry relative="1" as="geometry">
            <mxPoint x="840" y="257.5" as="targetPoint" />
          </mxGeometry>
        </mxCell>
        <mxCell id="iA-LfhA7wfivf__Mqdaw-43" value="GitHub" style="dashed=0;outlineConnect=0;html=1;align=center;labelPosition=center;verticalLabelPosition=bottom;verticalAlign=top;shape=mxgraph.weblogos.github" parent="1" vertex="1">
          <mxGeometry x="270" y="220" width="75" height="75" as="geometry" />
        </mxCell>
        <mxCell id="iA-LfhA7wfivf__Mqdaw-47" value="Deploy&lt;br&gt;PORT 443 HTTPS" style="edgeStyle=orthogonalEdgeStyle;rounded=1;orthogonalLoop=1;jettySize=auto;html=1;entryX=0.5;entryY=0;entryDx=0;entryDy=0;entryPerimeter=0;strokeColor=#6C8EBF;exitX=0.5;exitY=1;exitDx=0;exitDy=0;" parent="1" source="fAXEoHdD-FQfSCv90Svo-37" target="iA-LfhA7wfivf__Mqdaw-45" edge="1">
          <mxGeometry x="0.0643" relative="1" as="geometry">
            <mxPoint x="1145" y="310" as="sourcePoint" />
            <mxPoint as="offset" />
          </mxGeometry>
        </mxCell>
        <mxCell id="iA-LfhA7wfivf__Mqdaw-45" value="Cloud.gov API" style="html=1;dashed=0;whitespace=wrap;fillColor=#2875E2;strokeColor=#ffffff;points=[[0.005,0.63,0],[0.1,0.2,0],[0.9,0.2,0],[0.5,0,0],[0.995,0.63,0],[0.72,0.99,0],[0.5,1,0],[0.28,0.99,0]];shape=mxgraph.kubernetes.icon;prIcon=api;verticalAlign=top;align=center;labelPosition=center;verticalLabelPosition=bottom;" parent="1" vertex="1">
          <mxGeometry x="480" y="400" width="50" height="48" as="geometry" />
        </mxCell>
        <mxCell id="iA-LfhA7wfivf__Mqdaw-52" style="edgeStyle=orthogonalEdgeStyle;rounded=1;orthogonalLoop=1;jettySize=auto;html=1;entryX=0;entryY=0.5;entryDx=0;entryDy=0;entryPerimeter=0;strokeColor=#6C8EBF;fontColor=#00CC00;" parent="1" source="iA-LfhA7wfivf__Mqdaw-49" target="iA-LfhA7wfivf__Mqdaw-11" edge="1">
          <mxGeometry relative="1" as="geometry" />
        </mxCell>
        <mxCell id="iA-LfhA7wfivf__Mqdaw-49" value="Login.gov" style="html=1;strokeColor=none;fillColor=#0079D6;labelPosition=center;verticalLabelPosition=middle;verticalAlign=top;align=center;fontSize=12;outlineConnect=0;spacingTop=-6;fontColor=#FFFFFF;shape=mxgraph.sitemap.login;" parent="1" vertex="1">
          <mxGeometry x="80" y="500" width="120" height="70" as="geometry" />
        </mxCell>
        <mxCell id="iA-LfhA7wfivf__Mqdaw-50" value="&lt;font color=&quot;#000000&quot;&gt;cloud.gov URL router&lt;/font&gt;" style="points=[[0.5,0,0],[1,0.5,0],[0.5,1,0],[0,0.5,0],[0.145,0.145,0],[0.8555,0.145,0],[0.855,0.8555,0],[0.145,0.855,0]];verticalLabelPosition=bottom;html=1;verticalAlign=top;aspect=fixed;align=center;pointerEvents=1;shape=mxgraph.cisco19.rect;prIcon=router;fillColor=#FAFAFA;strokeColor=#005073;fontColor=#00CC00;" parent="1" vertex="1">
          <mxGeometry x="562.63" y="510" width="50" height="50" as="geometry" />
        </mxCell>
        <mxCell id="fAXEoHdD-FQfSCv90Svo-3" value="&lt;font style=&quot;font-size: 10px&quot;&gt;cloud.gov&lt;br&gt;brokered &lt;br&gt;RDS&lt;/font&gt;" style="outlineConnect=0;dashed=0;verticalLabelPosition=bottom;verticalAlign=top;align=center;html=1;shape=mxgraph.aws3.rds;fillColor=#2E73B8;gradientColor=none;" parent="1" vertex="1">
          <mxGeometry x="400" y="1000" width="32.22" height="38.75" as="geometry" />
        </mxCell>
        <mxCell id="fAXEoHdD-FQfSCv90Svo-8" value="&lt;font style=&quot;font-size: 10px&quot;&gt;cloud.gov&lt;br&gt;brokered &lt;br&gt;S3&lt;/font&gt;" style="outlineConnect=0;dashed=0;verticalLabelPosition=bottom;verticalAlign=top;align=center;html=1;shape=mxgraph.aws3.s3;fillColor=#E05243;gradientColor=none;strokeColor=#007FFF;" parent="1" vertex="1">
          <mxGeometry x="450.00000000000006" y="1000" width="31.54" height="38.75" as="geometry" />
        </mxCell>
        <mxCell id="QzKXCY8GYKlgsEN4Nh85-20" value="&lt;span&gt;PORT 443&lt;/span&gt;&lt;br&gt;HTTPS" style="endArrow=classic;html=1;strokeColor=#67AB9F;fontStyle=0" parent="1" edge="1" treatAsSingle="0">
          <mxGeometry x="-0.4513" width="50" height="50" relative="1" as="geometry">
            <mxPoint x="592" y="560" as="sourcePoint" />
            <mxPoint x="592.5224975826177" y="705.81" as="targetPoint" />
            <Array as="points" />
            <mxPoint as="offset" />
          </mxGeometry>
        </mxCell>
        <mxCell id="XUrn47uTPDeKOQUj5lta-6" value="" style="edgeStyle=orthogonalEdgeStyle;rounded=0;orthogonalLoop=1;jettySize=auto;html=1;" edge="1" parent="1" source="fAXEoHdD-FQfSCv90Svo-5" target="rVX_8A2fTbSxbzOPcYSw-11">
          <mxGeometry relative="1" as="geometry">
            <Array as="points">
              <mxPoint x="445" y="800" />
              <mxPoint x="445" y="800" />
            </Array>
          </mxGeometry>
        </mxCell>
        <mxCell id="fAXEoHdD-FQfSCv90Svo-5" value="&lt;span style=&quot;background-color: rgb(255 , 255 , 255)&quot;&gt;cloud.gov brokered&lt;br&gt;API Application&lt;/span&gt;" style="outlineConnect=0;fontColor=#232F3E;gradientColor=none;dashed=0;verticalLabelPosition=bottom;verticalAlign=top;align=center;html=1;fontSize=12;fontStyle=0;aspect=fixed;shape=mxgraph.aws4.resourceIcon;resIcon=mxgraph.aws4.container_2;strokeColor=#007FFF;fillColor=none;" parent="1" vertex="1">
          <mxGeometry x="415" y="695.81" width="60" height="60" as="geometry" />
        </mxCell>
        <mxCell id="fAXEoHdD-FQfSCv90Svo-6" style="edgeStyle=orthogonalEdgeStyle;rounded=0;orthogonalLoop=1;jettySize=auto;html=1;" parent="1" source="fAXEoHdD-FQfSCv90Svo-7" target="fAXEoHdD-FQfSCv90Svo-5" edge="1">
          <mxGeometry x="431.75" y="700" as="geometry" />
        </mxCell>
        <mxCell id="fAXEoHdD-FQfSCv90Svo-7" value="&lt;span style=&quot;background-color: rgb(255 , 255 , 255) ; line-height: 120%&quot;&gt;cloud.gov brokered&lt;br&gt;Frontend Application&lt;/span&gt;" style="outlineConnect=0;fontColor=#232F3E;gradientColor=none;dashed=0;verticalLabelPosition=bottom;verticalAlign=top;align=center;html=1;fontSize=12;fontStyle=0;aspect=fixed;shape=mxgraph.aws4.resourceIcon;resIcon=mxgraph.aws4.container_2;strokeColor=#007FFF;fillColor=none;snapToPoint=1;" parent="1" vertex="1">
          <mxGeometry x="562.63" y="695.81" width="60" height="60" as="geometry" />
        </mxCell>
        <mxCell id="fAXEoHdD-FQfSCv90Svo-37" value="CircleCI" style="shape=image;aspect=fixed;image=data:image/svg+xml,PD94bWwgdmVyc2lvbj0iMS4wIiBlbmNvZGluZz0iVVRGLTgiIHN0YW5kYWxvbmU9Im5vIj8+CjwhLS0gR2VuZXJhdG9yOiBBZG9iZSBJbGx1c3RyYXRvciAxOC4xLjEsIFNWRyBFeHBvcnQgUGx1Zy1JbiAuIFNWRyBWZXJzaW9uOiA2LjAwIEJ1aWxkIDApICAtLT4KCjxzdmcKICAgeG1sbnM6ZGM9Imh0dHA6Ly9wdXJsLm9yZy9kYy9lbGVtZW50cy8xLjEvIgogICB4bWxuczpjYz0iaHR0cDovL2NyZWF0aXZlY29tbW9ucy5vcmcvbnMjIgogICB4bWxuczpyZGY9Imh0dHA6Ly93d3cudzMub3JnLzE5OTkvMDIvMjItcmRmLXN5bnRheC1ucyMiCiAgIHhtbG5zOnN2Zz0iaHR0cDovL3d3dy53My5vcmcvMjAwMC9zdmciCiAgIHhtbG5zPSJodHRwOi8vd3d3LnczLm9yZy8yMDAwL3N2ZyIKICAgeG1sbnM6c29kaXBvZGk9Imh0dHA6Ly9zb2RpcG9kaS5zb3VyY2Vmb3JnZS5uZXQvRFREL3NvZGlwb2RpLTAuZHRkIgogICB4bWxuczppbmtzY2FwZT0iaHR0cDovL3d3dy5pbmtzY2FwZS5vcmcvbmFtZXNwYWNlcy9pbmtzY2FwZSIKICAgdmVyc2lvbj0iMS4xIgogICBpZD0iTGF5ZXJfMSIKICAgeD0iMHB4IgogICB5PSIwcHgiCiAgIHZpZXdCb3g9IjAgMCAxMDMuOCAxMDUuMiIKICAgZW5hYmxlLWJhY2tncm91bmQ9Im5ldyAwIDAgMjAwIDIwMCIKICAgeG1sOnNwYWNlPSJwcmVzZXJ2ZSIKICAgaW5rc2NhcGU6dmVyc2lvbj0iMC45MSByMTM3MjUiCiAgIHNvZGlwb2RpOmRvY25hbWU9ImxvZ28taWNvbi5zdmciCiAgIHdpZHRoPSIxMDMuOCIKICAgaGVpZ2h0PSIxMDUuMiI+PG1ldGFkYXRhCiAgICAgaWQ9Im1ldGFkYXRhMTMiPjxyZGY6UkRGPjxjYzpXb3JrCiAgICAgICAgIHJkZjphYm91dD0iIj48ZGM6Zm9ybWF0PmltYWdlL3N2Zyt4bWw8L2RjOmZvcm1hdD48ZGM6dHlwZQogICAgICAgICAgIHJkZjpyZXNvdXJjZT0iaHR0cDovL3B1cmwub3JnL2RjL2RjbWl0eXBlL1N0aWxsSW1hZ2UiIC8+PGRjOnRpdGxlPjwvZGM6dGl0bGU+PC9jYzpXb3JrPjwvcmRmOlJERj48L21ldGFkYXRhPjxkZWZzCiAgICAgaWQ9ImRlZnMxMSIgLz48c29kaXBvZGk6bmFtZWR2aWV3CiAgICAgcGFnZWNvbG9yPSIjZmZmZmZmIgogICAgIGJvcmRlcmNvbG9yPSIjNjY2NjY2IgogICAgIGJvcmRlcm9wYWNpdHk9IjEiCiAgICAgb2JqZWN0dG9sZXJhbmNlPSIxMCIKICAgICBncmlkdG9sZXJhbmNlPSIxMCIKICAgICBndWlkZXRvbGVyYW5jZT0iMTAiCiAgICAgaW5rc2NhcGU6cGFnZW9wYWNpdHk9IjAiCiAgICAgaW5rc2NhcGU6cGFnZXNoYWRvdz0iMiIKICAgICBpbmtzY2FwZTp3aW5kb3ctd2lkdGg9IjMwNzAiCiAgICAgaW5rc2NhcGU6d2luZG93LWhlaWdodD0iMTc1MiIKICAgICBpZD0ibmFtZWR2aWV3OSIKICAgICBzaG93Z3JpZD0iZmFsc2UiCiAgICAgZml0LW1hcmdpbi10b3A9IjAiCiAgICAgZml0LW1hcmdpbi1sZWZ0PSIwIgogICAgIGZpdC1tYXJnaW4tcmlnaHQ9IjAiCiAgICAgZml0LW1hcmdpbi1ib3R0b209IjAiCiAgICAgaW5rc2NhcGU6em9vbT0iMS4xOCIKICAgICBpbmtzY2FwZTpjeD0iNTEuOSIKICAgICBpbmtzY2FwZTpjeT0iMjIuNSIKICAgICBpbmtzY2FwZTp3aW5kb3cteD0iMTMwIgogICAgIGlua3NjYXBlOndpbmRvdy15PSI0OCIKICAgICBpbmtzY2FwZTp3aW5kb3ctbWF4aW1pemVkPSIxIgogICAgIGlua3NjYXBlOmN1cnJlbnQtbGF5ZXI9IkxheWVyXzEiIC8+PHBhdGgKICAgICBzdHlsZT0iZmlsbDojMzQzNDM0IgogICAgIGlua3NjYXBlOmNvbm5lY3Rvci1jdXJ2YXR1cmU9IjAiCiAgICAgaWQ9InBhdGg3IgogICAgIGQ9Im0gMzguNiw1Mi42IGMgMCwtNi45IDUuNiwtMTIuNSAxMi41LC0xMi41IDYuOSwwIDEyLjUsNS42IDEyLjUsMTIuNSAwLDYuOSAtNS42LDEyLjUgLTEyLjUsMTIuNSBDIDQ0LjIsNjUuMiAzOC42LDU5LjUgMzguNiw1Mi42IFogTSA1MS4xLDAgQyAyNi41LDAgNS45LDE2LjggMC4xLDM5LjYgMC4xLDM5LjggMCwzOS45IDAsNDAuMSBjIDAsMS40IDEuMSwyLjUgMi41LDIuNSBsIDIxLjIsMCBjIDEsMCAxLjksLTAuNiAyLjMsLTEuNSBsIDAsMCBDIDMwLjQsMzEuNiAzOS45LDI1IDUxLjEsMjUgNjYuMywyNSA3OC43LDM3LjQgNzguNyw1Mi42IDc4LjcsNjcuOCA2Ni4zLDgwLjIgNTEuMSw4MC4yIDQwLDgwLjIgMzAuNCw3My42IDI2LDY0LjEgbCAwLDAgYyAtMC40LC0wLjkgLTEuMywtMS41IC0yLjMsLTEuNSBsIC0yMS4yLDAgYyAtMS40LDAgLTIuNSwxLjEgLTIuNSwyLjUgMCwwLjIgMCwwLjMgMC4xLDAuNSA1LjgsMjIuOCAyNi40LDM5LjYgNTEsMzkuNiAyOS4xLDAgNTIuNywtMjMuNiA1Mi43LC01Mi43IEMgMTAzLjgsMjMuNSA4MC4yLDAgNTEuMSwwIFoiIC8+PC9zdmc+;verticalAlign=top;html=1;labelPosition=center;verticalLabelPosition=bottom;align=center;labelBackgroundColor=#FFFFFF;" parent="1" vertex="1">
          <mxGeometry x="478.26" y="230.5" width="53.48" height="54" as="geometry" />
        </mxCell>
        <mxCell id="Fioxkh-S0CASgPjbgOpJ-1" value="Docker Hub" style="aspect=fixed;html=1;points=[];align=center;image;fontSize=12;image=img/lib/mscae/Docker.svg;" parent="1" vertex="1">
          <mxGeometry x="701.46" y="233.5" width="58.54" height="48" as="geometry" />
        </mxCell>
        <mxCell id="Fioxkh-S0CASgPjbgOpJ-8" value="" style="endArrow=classic;startArrow=classic;html=1;exitX=1;exitY=0.5;exitDx=0;exitDy=0;entryX=-0.042;entryY=0.49;entryDx=0;entryDy=0;entryPerimeter=0;" parent="1" source="fAXEoHdD-FQfSCv90Svo-37" target="Fioxkh-S0CASgPjbgOpJ-1" edge="1" treatAsSingle="0">
          <mxGeometry width="50" height="50" relative="1" as="geometry">
            <mxPoint x="1030" y="470" as="sourcePoint" />
            <mxPoint x="1055" y="258" as="targetPoint" />
          </mxGeometry>
        </mxCell>
        <mxCell id="Fioxkh-S0CASgPjbgOpJ-9" value="Push/Pull Docker images&lt;br&gt;PORT 443 HTTPS" style="edgeLabel;html=1;align=center;verticalAlign=middle;resizable=0;points=[];" parent="Fioxkh-S0CASgPjbgOpJ-8" vertex="1" connectable="0">
          <mxGeometry x="-0.0903" y="1" relative="1" as="geometry">
            <mxPoint x="4.26" y="0.77" as="offset" />
          </mxGeometry>
        </mxCell>
        <mxCell id="rVX_8A2fTbSxbzOPcYSw-1" style="edgeStyle=orthogonalEdgeStyle;rounded=0;orthogonalLoop=1;jettySize=auto;html=1;exitX=0.5;exitY=1;exitDx=0;exitDy=0;" parent="1" source="wMVF6Ftdtufdl3YfwQ66-36" target="wMVF6Ftdtufdl3YfwQ66-36" edge="1">
          <mxGeometry relative="1" as="geometry" />
        </mxCell>
        <mxCell id="XUrn47uTPDeKOQUj5lta-21" value="" style="edgeStyle=orthogonalEdgeStyle;rounded=0;orthogonalLoop=1;jettySize=auto;html=1;" edge="1" parent="1" source="iA-LfhA7wfivf__Mqdaw-14" target="fAXEoHdD-FQfSCv90Svo-8">
          <mxGeometry relative="1" as="geometry">
            <mxPoint x="445" y="931" as="targetPoint" />
            <Array as="points">
              <mxPoint x="440" y="911" />
              <mxPoint x="464" y="911" />
            </Array>
          </mxGeometry>
        </mxCell>
        <mxCell id="XUrn47uTPDeKOQUj5lta-24" style="edgeStyle=orthogonalEdgeStyle;rounded=0;orthogonalLoop=1;jettySize=auto;html=1;" edge="1" parent="1" source="iA-LfhA7wfivf__Mqdaw-14" target="fAXEoHdD-FQfSCv90Svo-3">
          <mxGeometry relative="1" as="geometry">
            <Array as="points">
              <mxPoint x="440" y="911" />
              <mxPoint x="416" y="911" />
            </Array>
          </mxGeometry>
        </mxCell>
        <mxCell id="rVX_8A2fTbSxbzOPcYSw-11" value="&lt;span style=&quot;color: rgb(0 , 0 , 0)&quot;&gt;AnitVirus API&lt;/span&gt;&lt;br style=&quot;color: rgb(0 , 0 , 0)&quot;&gt;&lt;span style=&quot;color: rgb(0 , 0 , 0)&quot;&gt;Application&lt;/span&gt;" style="outlineConnect=0;fontColor=#232F3E;gradientColor=none;dashed=0;verticalLabelPosition=bottom;verticalAlign=top;align=center;html=1;fontSize=12;fontStyle=0;aspect=fixed;shape=mxgraph.aws4.resourceIcon;resIcon=mxgraph.aws4.container_2;strokeColor=#007FFF;fillColor=none;" parent="1" vertex="1">
          <mxGeometry x="415" y="790.9999999999999" width="60" height="60" as="geometry" />
        </mxCell>
        <mxCell id="XUrn47uTPDeKOQUj5lta-25" style="edgeStyle=orthogonalEdgeStyle;rounded=0;orthogonalLoop=1;jettySize=auto;html=1;exitX=0.5;exitY=1;exitDx=0;exitDy=0;strokeColor=#A8A8A8;" edge="1" parent="1" source="wMVF6Ftdtufdl3YfwQ66-36" target="wMVF6Ftdtufdl3YfwQ66-36">
          <mxGeometry relative="1" as="geometry" />
        </mxCell>
        <mxCell id="XUrn47uTPDeKOQUj5lta-28" value="&lt;span style=&quot;color: rgb(0 , 0 , 0) ; font-family: &amp;#34;helvetica&amp;#34; ; font-style: normal ; font-weight: 400 ; letter-spacing: normal ; text-indent: 0px ; text-transform: none ; word-spacing: 0px ; background-color: rgb(255 , 255 , 255) ; display: inline ; float: none&quot;&gt;&lt;font style=&quot;font-size: 9px&quot;&gt;PORT 5432&amp;nbsp;Postgres&lt;/font&gt;&lt;/span&gt;" style="text;whiteSpace=wrap;html=1;align=center;" vertex="1" parent="1">
          <mxGeometry x="386.88" y="950" width="58.46" height="10" as="geometry" />
        </mxCell>
        <mxCell id="XUrn47uTPDeKOQUj5lta-29" value="&lt;span style=&quot;color: rgb(0 , 0 , 0) ; font-family: &amp;#34;helvetica&amp;#34; ; font-style: normal ; font-weight: 400 ; letter-spacing: normal ; text-indent: 0px ; text-transform: none ; word-spacing: 0px ; background-color: rgb(255 , 255 , 255) ; display: inline ; float: none&quot;&gt;&lt;font style=&quot;font-size: 9px&quot;&gt;PORT 443 HTTPS&lt;/font&gt;&lt;/span&gt;" style="text;whiteSpace=wrap;html=1;align=center;" vertex="1" parent="1">
          <mxGeometry x="433.08" y="920" width="58.46" height="10" as="geometry" />
        </mxCell>
      </root>
    </mxGraphModel>
  </diagram>
</mxfile>
